<svg width="58" height="35" viewBox="0 0 58 35" fill="none" xmlns="http://www.w3.org/2000/svg">
<path d="M34.401 6.14801L28.763 11.799L23.112 6.14801L28.763 0.5L34.401 6.14801Z" fill="#61DDE1"/>
<path d="M28.762 12.298L22.602 6.14801L28.762 0L34.91 6.14801L28.762 12.298ZM23.599 6.14801L28.762 11.301L33.913 6.14801L28.762 0.997009L23.599 6.14801Z" fill="#606060"/>
<path d="M28.762 11.799L23.099 17.448L17.448 11.797L23.099 6.14801L28.762 11.799Z" fill="white"/>
<path d="M23.1 17.946L16.952 11.798L23.1 5.65002L29.246 11.798L23.1 17.946ZM17.949 11.798L23.1 16.951L28.253 11.798L23.1 6.647L17.949 11.798Z" fill="#606060"/>
<path d="M17.4508 11.7992L11.801 17.449L17.4508 23.0988L23.1006 17.449L17.4508 11.7992Z" fill="#FFB94D"/>
<path d="M17.45 23.598L11.302 17.45L17.45 11.302L23.6 17.45L17.45 23.598ZM12.299 17.45L17.45 22.601L22.603 17.45L17.45 12.299L12.299 17.45Z" fill="#606060"/>
<path d="M11.7988 17.4502L6.149 23.1L11.7988 28.7498L17.4486 23.1L11.7988 17.4502Z" fill="white"/>
<path d="M11.802 29.248L5.65199 23.1L11.802 16.952L17.95 23.1L11.802 29.248ZM6.649 23.1L11.802 28.251L16.953 23.1L11.802 17.947L6.649 23.1Z" fill="#606060"/>
<path d="M34.3988 6.15121L28.749 11.801L34.3988 17.4508L40.0486 11.801L34.3988 6.15121Z" fill="white"/>
<path d="M34.402 17.946L28.254 11.798L34.402 5.65002L40.55 11.798L34.402 17.946ZM29.246 11.798L34.399 16.951L39.55 11.798L34.399 6.647L29.246 11.798Z" fill="#606060"/>
<path d="M28.7518 11.8012L23.102 17.451L28.7518 23.1008L34.4016 17.451L28.7518 11.8012Z" fill="#FFB94D"/>
<path d="M28.762 23.598L22.602 17.45L28.762 11.302L34.898 17.45L28.762 23.598ZM23.599 17.45L28.762 22.601L33.901 17.45L28.762 12.299L23.599 17.45Z" fill="#606060"/>
<path d="M23.1018 17.4502L17.452 23.1L23.1018 28.7498L28.7516 23.1L23.1018 17.4502Z" fill="white"/>
<path d="M23.1 29.248L16.952 23.1L23.1 16.952L29.246 23.1L23.1 29.248ZM17.949 23.1L23.1 28.251L28.253 23.1L23.1 17.947L17.949 23.1Z" fill="#606060"/>
<path d="M40.0508 11.8012L34.401 17.451L40.0508 23.1008L45.7006 17.451L40.0508 11.8012Z" fill="#FFB94D"/>
<path d="M40.052 23.598L33.902 17.45L40.052 11.302L46.2 17.45L40.052 23.598ZM34.899 17.45L40.052 22.601L45.203 17.45L40.052 12.299L34.899 17.45Z" fill="#606060"/>
<path d="M34.3988 17.4502L28.749 23.1L34.3988 28.7498L40.0486 23.1L34.3988 17.4502Z" fill="white"/>
<path d="M34.402 29.248L28.254 23.1L34.402 16.952L40.55 23.1L34.402 29.248ZM29.246 23.1L34.399 28.251L39.55 23.1L34.399 17.947L29.246 23.1Z" fill="#606060"/>
<path d="M45.6988 17.4502L40.049 23.1L45.6988 28.7498L51.3486 23.1L45.6988 17.4502Z" fill="white"/>
<path d="M45.7 29.248L39.552 23.1L45.7 16.952L51.85 23.1L45.7 29.248ZM40.549 23.1L45.7 28.251L50.853 23.1L45.7 17.947L40.549 23.1Z" fill="#606060"/>
<path d="M57 28.75L51.35 34.398L45.699 28.75L51.35 23.099L57 28.75Z" fill="#61DDE1"/>
<path d="M51.35 34.898L45.202 28.75L51.35 22.6L57.498 28.75L51.35 34.898ZM46.199 28.75L51.35 33.901L56.503 28.75L51.35 23.597L46.199 28.75Z" fill="#606060"/>
<path d="M40.0488 23.0982L34.399 28.748L40.0488 34.3978L45.6986 28.748L40.0488 23.0982Z" fill="#61DDE1"/>
<path d="M40.052 34.898L33.902 28.75L40.052 22.6L46.2 28.75L40.052 34.898ZM34.899 28.75L40.052 33.901L45.203 28.75L40.052 23.597L34.899 28.75Z" fill="#606060"/>
<path d="M28.7498 23.0982L23.1 28.748L28.7498 34.3978L34.3996 28.748L28.7498 23.0982Z" fill="#61DDE1"/>
<path d="M28.762 34.898L22.602 28.75L28.762 22.6L34.91 28.75L28.762 34.898ZM23.599 28.75L28.762 33.901L33.913 28.75L28.762 23.597L23.599 28.75Z" fill="#606060"/>
<path d="M17.4508 23.0982L11.801 28.748L17.4508 34.3978L23.1006 28.748L17.4508 23.0982Z" fill="#61DDE1"/>
<path d="M17.45 34.898L11.302 28.75L17.45 22.6L23.6 28.75L17.45 34.898ZM12.299 28.75L17.45 33.901L22.603 28.75L17.45 23.597L12.299 28.75Z" fill="#606060"/>
<path d="M6.14878 23.0982L0.498993 28.748L6.14878 34.3978L11.7986 28.748L6.14878 23.0982Z" fill="#61DDE1"/>
<path d="M6.14999 34.898L0 28.75L6.14999 22.6L12.298 28.75L6.14999 34.898ZM0.992004 28.75L6.145 33.901L11.296 28.75L6.145 23.597L0.992004 28.75Z" fill="#606060"/>
</svg>
