<svg xmlns="http://www.w3.org/2000/svg" enable-background="new 0 0 64 64" viewBox="0 0 64 64" id="podium">
	<rect width="19.2" height="21" x="22.4" y="42" fill="#f7e8ad"></rect>
	<polygon fill="#e2cf96" points="40.8 42.7 40.8 63.7 39.2 63.7 39.2 44.4 21.7 44.4 21.7 42.7"></polygon>
	<path fill="#193651" d="M36,58c0,0.2,0,0.3,0,0.5c0,0.1,0,0.2-0.1,0.3c0,0.1-0.1,0.1-0.1,0.2c0,0-0.1,0-0.2,0h-7.1
				c-0.1,0-0.1,0-0.1,0c0,0-0.1-0.1-0.1-0.2c0-0.1-0.1-0.2-0.1-0.3c0-0.1,0-0.3,0-0.5c0-0.2,0-0.4,0-0.5c0-0.1,0-0.2,0.1-0.3
				c0-0.1,0.1-0.1,0.1-0.2s0.1-0.1,0.2-0.1h2.4v-8.4l-2.1,1.1c-0.2,0.1-0.3,0.1-0.4,0.1c-0.1,0-0.2,0-0.2-0.1
				c-0.1-0.1-0.1-0.2-0.1-0.3c0-0.1,0-0.3,0-0.6c0-0.2,0-0.3,0-0.4c0-0.1,0-0.2,0-0.3c0-0.1,0.1-0.1,0.1-0.2c0,0,0.1-0.1,0.2-0.1
				l2.8-1.8c0,0,0.1,0,0.1-0.1c0.1,0,0.1,0,0.2,0c0.1,0,0.2,0,0.3,0c0.1,0,0.3,0,0.5,0c0.3,0,0.5,0,0.6,0c0.2,0,0.3,0,0.4,0.1
				c0.1,0,0.1,0.1,0.2,0.1c0,0,0,0.1,0,0.1V57h2.1c0.1,0,0.1,0,0.2,0.1c0.1,0,0.1,0.1,0.1,0.2c0,0.1,0.1,0.2,0.1,0.3
				C35.9,57.6,36,57.8,36,58z"></path>
	<rect width="18" height="16.2" x="4.5" y="46.8" fill="#92d6f4"></rect>
	<path fill="#193651" d="M16.4,58.7c0,0.1,0,0.2,0,0.3c0,0.1,0,0.2-0.1,0.2c0,0.1-0.1,0.1-0.1,0.1c0,0-0.1,0-0.1,0H11
				c-0.1,0-0.2,0-0.3,0c-0.1,0-0.1-0.1-0.2-0.1c0-0.1-0.1-0.1-0.1-0.2c0-0.1,0-0.2,0-0.4c0-0.2,0-0.3,0-0.4c0-0.1,0-0.2,0.1-0.3
				c0-0.1,0.1-0.2,0.1-0.2c0.1-0.1,0.1-0.2,0.2-0.3l1.6-1.7c0.3-0.3,0.6-0.6,0.7-0.9c0.2-0.3,0.3-0.5,0.4-0.7
				c0.1-0.2,0.2-0.4,0.2-0.6c0-0.2,0.1-0.4,0.1-0.5c0-0.2,0-0.3-0.1-0.4c0-0.1-0.1-0.3-0.2-0.4c-0.1-0.1-0.2-0.2-0.4-0.2
				C13.1,52,13,52,12.8,52c-0.3,0-0.5,0-0.7,0.1c-0.2,0.1-0.4,0.1-0.6,0.2c-0.2,0.1-0.3,0.2-0.4,0.2c-0.1,0.1-0.2,0.1-0.2,0.1
				c0,0-0.1,0-0.1,0c0,0-0.1-0.1-0.1-0.1c0-0.1,0-0.2,0-0.3c0-0.1,0-0.2,0-0.4c0-0.1,0-0.2,0-0.3c0-0.1,0-0.1,0-0.2
				c0-0.1,0-0.1,0.1-0.1c0,0,0.1-0.1,0.1-0.1c0.1-0.1,0.2-0.1,0.3-0.2c0.2-0.1,0.3-0.2,0.6-0.2c0.2-0.1,0.5-0.1,0.7-0.2
				c0.3-0.1,0.6-0.1,0.9-0.1c0.5,0,0.9,0.1,1.2,0.2c0.3,0.1,0.6,0.3,0.9,0.5c0.2,0.2,0.4,0.5,0.5,0.7c0.1,0.3,0.2,0.6,0.2,0.9
				c0,0.3,0,0.6-0.1,0.9c-0.1,0.3-0.2,0.6-0.3,0.9c-0.2,0.3-0.4,0.7-0.7,1.1c-0.3,0.4-0.7,0.9-1.3,1.4l-1,1.1h3.5c0,0,0.1,0,0.1,0
				c0,0,0.1,0.1,0.1,0.1c0,0.1,0,0.1,0.1,0.2C16.4,58.5,16.4,58.6,16.4,58.7z"></path>
	<rect width="18" height="16.2" x="41.6" y="46.8" fill="#c9c9c9"></rect>
	<path fill="#193651" d="M53.5,56.8c0,0.4-0.1,0.8-0.3,1.2c-0.2,0.3-0.4,0.6-0.7,0.9c-0.3,0.2-0.7,0.4-1.1,0.5
				c-0.4,0.1-0.9,0.2-1.4,0.2c-0.3,0-0.6,0-0.9-0.1c-0.3,0-0.5-0.1-0.7-0.2c-0.2-0.1-0.4-0.1-0.5-0.2C47.9,59,47.8,59,47.8,59
				c0,0-0.1-0.1-0.1-0.1c0,0,0-0.1-0.1-0.2c0-0.1,0-0.1,0-0.2s0-0.2,0-0.3c0-0.2,0-0.4,0.1-0.5c0-0.1,0.1-0.1,0.2-0.1
				c0,0,0.1,0,0.2,0.1c0.1,0.1,0.3,0.1,0.4,0.2c0.2,0.1,0.4,0.1,0.6,0.2c0.2,0.1,0.5,0.1,0.8,0.1c0.3,0,0.5,0,0.7-0.1
				c0.2-0.1,0.4-0.1,0.5-0.3c0.1-0.1,0.2-0.2,0.3-0.4c0.1-0.2,0.1-0.3,0.1-0.5c0-0.2,0-0.4-0.1-0.6c-0.1-0.2-0.2-0.3-0.4-0.4
				c-0.2-0.1-0.4-0.2-0.6-0.3c-0.2-0.1-0.5-0.1-0.9-0.1h-0.8c-0.1,0-0.1,0-0.2,0c0,0-0.1,0-0.1-0.1c0-0.1,0-0.1-0.1-0.2
				c0-0.1,0-0.2,0-0.3c0-0.1,0-0.2,0-0.3c0-0.1,0-0.2,0.1-0.2c0,0,0.1-0.1,0.1-0.1c0,0,0.1,0,0.1,0h0.8c0.3,0,0.5,0,0.7-0.1
				c0.2-0.1,0.4-0.2,0.5-0.3c0.1-0.1,0.2-0.3,0.3-0.4c0.1-0.2,0.1-0.3,0.1-0.5c0-0.2,0-0.3-0.1-0.4C51,52.3,51,52.1,50.9,52
				c-0.1-0.1-0.2-0.2-0.4-0.2c-0.2-0.1-0.3-0.1-0.6-0.1c-0.2,0-0.5,0-0.7,0.1c-0.2,0.1-0.4,0.2-0.6,0.2c-0.2,0.1-0.3,0.2-0.4,0.2
				c-0.1,0.1-0.2,0.1-0.3,0.1c0,0-0.1,0-0.1,0c0,0-0.1,0-0.1-0.1c0,0,0-0.1,0-0.2c0-0.1,0-0.2,0-0.3c0-0.1,0-0.2,0-0.3
				c0-0.1,0-0.1,0-0.2c0-0.1,0-0.1,0.1-0.1c0,0,0.1-0.1,0.1-0.1c0,0,0.1-0.1,0.3-0.2c0.1-0.1,0.3-0.2,0.5-0.3
				c0.2-0.1,0.5-0.2,0.8-0.2c0.3-0.1,0.6-0.1,0.9-0.1c0.4,0,0.8,0.1,1.2,0.2c0.3,0.1,0.6,0.2,0.8,0.4c0.2,0.2,0.4,0.4,0.5,0.7
				c0.1,0.3,0.2,0.6,0.2,0.9c0,0.3,0,0.5-0.1,0.8c-0.1,0.2-0.2,0.4-0.3,0.6c-0.1,0.2-0.3,0.3-0.5,0.5c-0.2,0.1-0.4,0.2-0.7,0.3v0
				c0.3,0,0.6,0.1,0.8,0.2c0.2,0.1,0.5,0.3,0.6,0.5c0.2,0.2,0.3,0.4,0.4,0.6C53.5,56.2,53.5,56.5,53.5,56.8z"></path>
	<rect width="26.3" height="16.7" x="32" y="2.1" fill="#fcb9b9"></rect>
	<polygon fill="#e59393" points="57.9 2.9 57.9 19.6 55.8 19.6 55.8 4.5 31.6 4.5 31.6 2.9"></polygon>
	<polygon fill="#a5a5a5" points="58.7 47.8 58.7 63 57.2 63 57.2 49 41.6 49 41.6 47.8"></polygon>
	<polygon fill="#73bed8" points="21.6 47.8 21.6 63 20.1 63 20.1 49 4.5 49 4.5 47.8"></polygon>
	<rect width="2" height="42" x="31" fill="#193651"></rect>
	<path fill="#193651" d="M42.6,64H21.4V41h21.2V64z M23.4,62h17.1V43H23.4V62z"></path>
	<path fill="#193651" d="M23.4 64h-20V45.8h20V64zM5.5 62h15.9V47.8H5.5V62zM60.5 64h-20V45.8h20V64zM42.6 62h15.9V47.8H42.6V62zM59.3 19.8H31V1.1h28.4V19.8zM33 17.8h24.3V3.1H33V17.8z"></path>
</svg>